<?xml version="1.0"?>
<svg xmlns="http://www.w3.org/2000/svg" height="512px" viewBox="0 -4 512 511" width="512px"><g><path d="m469.4375 201.746094c-2.773438-1.855469-6.292969-2.207032-9.378906-.9375l-29.4375 12.132812c-.601563-10.4375-9.257813-18.753906-19.84375-18.753906h-57.9375c-10.972656 0-19.898438 8.925781-19.898438 19.898438v48.8125c0 10.972656 8.925782 19.898437 19.898438 19.898437h57.9375c9.800781 0 17.953125-7.128906 19.582031-16.46875l29.691406 12.253906c1.230469.507813 2.527344.757813 3.816407.757813 1.953124 0 3.894531-.574219 5.566406-1.691406 2.773437-1.855469 4.441406-4.976563 4.441406-8.316407v-59.269531c0-3.339844-1.664062-6.457031-4.4375-8.316406zm-58.773438 26.117187v34.921875h-57.710937l-.023437-48.585937h57.734374zm43.199219 26.515625-23.183593-9.570312v-10.246094l23.183593-9.554688zm0 0" data-original="#000000" class="active-path" data-old_color="#000000" fill="#3B04DB"/><path d="m183.890625 36.3125c-3.53125-4.25-9.839844-4.832031-14.089844-1.300781s-4.832031 9.839843-1.300781 14.089843l.140625.171876c1.980469 2.378906 4.832031 3.609374 7.703125 3.609374 2.253906 0 4.519531-.757812 6.386719-2.308593 4.25-3.53125 4.835937-9.839844 1.300781-14.089844zm0 0" data-original="#000000" class="active-path" data-old_color="#000000" fill="#3B04DB"/><path d="m176.394531 440.257812h-.199219c-5.527343 0-10.007812 4.480469-10.007812 10.007813 0 5.523437 4.480469 10.003906 10.007812 10.003906h.199219c5.523438 0 10.003907-4.480469 10.003907-10.003906 0-5.527344-4.480469-10.007813-10.003907-10.007813zm0 0" data-original="#000000" class="active-path" data-old_color="#000000" fill="#3B04DB"/><path d="m255.222656 159.578125c5.523438 0 10.003906-4.480469 10.003906-10.007813 0-5.523437-4.480468-10.003906-10.003906-10.003906h-157.800781c-5.523437 0-10.007813 4.480469-10.007813 10.003906 0 5.527344 4.480469 10.007813 10.007813 10.007813zm0 0" data-original="#000000" class="active-path" data-old_color="#000000" fill="#3B04DB"/><path d="m486.546875 142.257812h-134.132813v-112.078124c0-16.367188-13.3125-29.679688-29.675781-29.679688h-293.058593c-16.367188 0-29.679688 13.3125-29.679688 29.679688v186.371093c0 5.527344 4.480469 10.007813 10.007812 10.007813 5.527344 0 10.007813-4.480469 10.007813-10.007813v-145.953125h114.792969l15.09375 16.113282c1.890625 2.015624 4.535156 3.164062 7.300781 3.164062h35.402344c2.769531 0 5.414062-1.148438 7.304687-3.164062l15.089844-16.113282h117.402344v71.660156h-18.140625c-14.035157 0-25.453125 11.417969-25.453125 25.453126v139.207031c0 14.035156 11.417968 25.453125 25.453125 25.453125h9.84375l-10.824219 25.957031c-1.941406 4.636719-.707031 9.734375 3.074219 12.679687 2.082031 1.621094 4.238281 2.246094 6.378906 2.246094 3.390625 0 6.738281-1.574218 9.667969-3.234375v70.238281h-33.3125c-3.726563-24.628906-15.148438-46.058593-33.382813-62.398437-12.011719-10.765625-26.523437-19.011719-42.78125-24.457031 16.355469-13.054688 25.945313-31.472656 25.945313-50.367188v-17.238281c7.152344-4.90625 12.574218-13.582031 14.496094-16.941406 12.769531-22.320313 13.0625-48.105469.789062-68.96875-1.441406-2.457031-3.867188-4.183594-6.660156-4.742188-2.796875-.558593-5.695313.101563-7.972656 1.816407-18.761719 14.101562-36.929688 11.503906-59.9375 8.214843-4.953126-.707031-10.074219-1.441406-15.332032-2.003906-20.542968-2.195313-39.042968 3.585937-52.09375 16.289063-14.429687 14.042968-21.335937 35.371093-19.492187 60.089843v23.484375c0 19.558594 10.328125 37.847656 26.085937 50.40625-37.597656 13.691406-67.101562 47.050782-75.011718 86.816406h-33.730469v-143.828124c0-5.523438-4.480469-10.003907-10.003907-10.003907-5.527343 0-10.007812 4.480469-10.007812 10.003907v178.382812c0 16.363281 13.3125 29.675781 29.679688 29.675781h293.058593c16.363281 0 29.679688-13.3125 29.679688-29.675781v-117.925781c9.027343-6.34375 20.296875-14.566407 33.578125-24.511719h100.550781c14.035156 0 25.453125-11.421875 25.453125-25.453125v-139.210937c0-14.035157-11.417969-25.453126-25.453125-25.453126zm-350.429687 91.542969c7.507812-7.304687 17.628906-11.082031 29.542968-11.082031 2.101563 0 4.253906.117188 6.460938.351562 4.902344.527344 9.847656 1.234376 14.632812 1.917969 20.964844 2.996094 42.550782 6.082031 64.402344-5.421875 3.40625 10.882813 1.914062 20.976563-.3125 28.179688-3.664062 11.839844-10.480469 19.699218-13.25 21.558594h-48.785156c-27.175782 0-30.796875-6.175782-32.175782-12.503907-1.042968-4.78125-5.375-8.105469-10.273437-7.863281-4.886719.242188-8.882813 3.984375-9.441406 8.84375-.84375 7.285156-3.914063 9.410156-4.921875 10.109375-2.679688 1.855469-6.320313 2.445313-9.609375 2.484375.277343-15.3125 5.035156-28.109375 13.730469-36.574219zm-13.4375 69.234375v-12.652344c6.273437-.082031 13.902343-1.382812 20.566406-5.941406 1.667968-1.140625 3.46875-2.628906 5.199218-4.550781 10.320313 7.988281 25.605469 9.425781 40.363282 9.425781h40.050781v13.71875c0 14.1875-8.386719 28.265625-22.410156 37.648438-9.285157 6.183594-20.035157 9.578125-30.308594 9.578125-.105469 0-.207031 0-.3125 0-5.136719-.035157-10.183594-.832031-15.007813-2.257813-.570312-.246094-1.167968-.433594-1.785156-.570312-20.441406-6.792969-36.355468-24.949219-36.355468-44.398438zm209.722656 171.777344c0 5.328125-4.335938 9.664062-9.664063 9.664062h-293.058593c-5.332032 0-9.667969-4.335937-9.667969-9.664062v-14.542969h42.257812.015625.023438 73.949218c5.523438 0 10.003907-4.480469 10.003907-10.003906 0-5.527344-4.480469-10.007813-10.003907-10.007813h-19.132812v-16.667968c0-5.527344-4.480469-10.003906-10.007812-10.003906-5.527344 0-10.007813 4.476562-10.007813 10.003906v16.667968h-22.851563c9.375-37.542968 43.121094-68.261718 81.605469-72.855468 6.363281 1.808594 13.023438 2.828125 19.839844 2.871094h.4375c6.558594 0 13.230469-.996094 19.746094-2.878907 35.96875 5.542969 74.660156 27.46875 82.925781 72.863281h-26.113281v-16.582031c0-5.527343-4.480469-10.007812-10.007813-10.007812s-10.007812 4.480469-10.007812 10.007812v16.582031h-16.550782c-5.527343 0-10.007812 4.480469-10.007812 10.007813 0 5.523437 4.480469 10.003906 10.007812 10.003906h73.988282.007812.015625 42.257813zm-121.742188-424.226562c-2.765625 0-5.410156 1.148437-7.300781 3.167968l-15.089844 16.109375h-26.730469l-15.089843-16.109375c-1.890625-2.019531-4.535157-3.167968-7.304688-3.167968h-119.132812v-20.40625c0-5.332032 4.335937-9.667969 9.667969-9.667969h293.058593c5.328125 0 9.664063 4.335937 9.664063 9.667969v20.40625zm281.328125 256.332031c0 2.949219-2.492187 5.441406-5.441406 5.441406h-103.886719c-2.167968 0-4.273437.707031-6.007812 2.003906-14.691406 11.03125-25.582032 18.964844-33.640625 24.667969l5.34375-12.8125c1.289062-3.089844.949219-6.617188-.90625-9.402344s-4.980469-4.457031-8.328125-4.457031h-24.859375c-3 0-5.441407-2.441406-5.441407-5.441406v-139.207031c0-3 2.441407-5.441407 5.441407-5.441407h172.285156c2.949219 0 5.441406 2.492188 5.441406 5.441407zm0 0" data-original="#000000" class="active-path" data-old_color="#000000" fill="#3B04DB"/><path d="m10.007812 266.496094c5.523438 0 10.007813-4.476563 10.007813-10.003906v-.171876c0-5.523437-4.480469-10.003906-10.007813-10.003906-5.527343 0-10.007812 4.480469-10.007812 10.003906v.171876c0 5.527343 4.480469 10.003906 10.007812 10.003906zm0 0" data-original="#000000" class="active-path" data-old_color="#000000" fill="#3B04DB"/></g> </svg>
